<svg width="24" height="20" viewBox="0 0 24 20" fill="none" xmlns="http://www.w3.org/2000/svg">
<path d="M0 6H16V8H0V6ZM0 12H7V14H0V12Z" fill="#036FC7"/>
<path d="M6 1H8V7H6V1ZM11 7H13V12H11V7ZM16 1H18V7H16V1Z" fill="#036FC7"/>
<path d="M23 18V4C16 4 17.5 7.5 16 10C14.5 12.5 11.64 11.472 9 12C6.5 12.5 6.5 17 6.5 19H22C22.2652 19 22.5196 18.8946 22.7071 18.7071C22.8946 18.5196 23 18.2652 23 18Z" stroke="#036FC7" stroke-width="2"/>
<path d="M23 0H1C0.447715 0 0 0.447715 0 1V19C0 19.5523 0.447715 20 1 20H23C23.5523 20 24 19.5523 24 19V1C24 0.447715 23.5523 0 23 0Z" stroke="#036FC7" stroke-width="4"/>
</svg>