<svg width="24" height="24" viewBox="0 0 24 24" fill="none" xmlns="http://www.w3.org/2000/svg">
<path d="M5 3C5 2.73478 5.10536 2.48043 5.29289 2.29289C5.48043 2.10536 5.73478 2 6 2C6.26522 2 6.51957 2.10536 6.70711 2.29289C6.89464 2.48043 7 2.73478 7 3V11.16L5 12V3ZM11 1C11 0.734784 11.1054 0.48043 11.2929 0.292893C11.4804 0.105357 11.7348 0 12 0C12.2652 0 12.5196 0.105357 12.7071 0.292893C12.8946 0.48043 13 0.734784 13 1V14L11 13.006V1ZM17 3C17 2.73478 17.1054 2.48043 17.2929 2.29289C17.4804 2.10536 17.7348 2 18 2C18.2652 2 18.5196 2.10536 18.7071 2.29289C18.8946 2.48043 19 2.73478 19 3V16H17V3Z" fill="#036FC7"/>
<path d="M1 5C1 4.73478 1.10536 4.48043 1.29289 4.29289C1.48043 4.10536 1.73478 4 2 4H22C22.2652 4 22.5196 4.10536 22.7071 4.29289C22.8946 4.48043 23 4.73478 23 5C23 5.26522 22.8946 5.51957 22.7071 5.70711C22.5196 5.89464 22.2652 6 22 6H2C1.73478 6 1.48043 5.89464 1.29289 5.70711C1.10536 5.51957 1 5.26522 1 5ZM1 9C1 8.73478 1.10536 8.48043 1.29289 8.29289C1.48043 8.10536 1.73478 8 2 8H22C22.2652 8 22.5196 8.10536 22.7071 8.29289C22.8946 8.48043 23 8.73478 23 9C23 9.26522 22.8946 9.51957 22.7071 9.70711C22.5196 9.89464 22.2652 10 22 10H2C1.73478 10 1.48043 9.89464 1.29289 9.70711C1.10536 9.51957 1 9.26522 1 9ZM3 15H5V17H3V15ZM4 19H6V21H4V19ZM9 17H11V19H9V17ZM15 19H17V21H15V19ZM19 18H21V20H19V18Z" fill="#036FC7"/>
<path d="M0.75 23.2502V13.1622C1.853 12.5752 4.21 11.6592 6.91 11.6592C8.626 11.6592 10.06 12.6672 11.793 13.8842L11.796 13.8862C13.452 15.0502 15.366 16.3862 17.818 16.3862C20.243 16.3862 22.064 15.5222 23.25 14.5962V23.2502H0.75Z" stroke="#036FC7" stroke-width="1.5"/>
</svg>