<svg width="25" height="18" viewBox="0 0 25 18" fill="none" xmlns="http://www.w3.org/2000/svg">
<path d="M16.923 4.00017C16.368 4.00017 16 4.36817 16 4.92317V14.5002C16 14.9622 16.368 15.4232 16.923 15.4232C17.107 13.8552 18.338 12.5002 20.001 12.5002C21.663 12.5002 22.817 13.8382 23.001 15.5002H24.001C24.556 15.5002 25.001 15.0942 25.001 14.5382V9.92317C25.001 9.09317 24.251 8.07717 24.251 8.07717L22.231 4.96217C21.769 4.40617 21.491 4.03817 20.846 4.03817L16.923 4.00017ZM18.001 6.00017H21.001L23.067 9.08717C23.251 9.36417 23.5 9.72217 23.5 10.0002H18L18.001 6.00017ZM5.00099 14.0002C3.82799 14.0002 3.00099 14.8282 3.00099 16.0002C3.00099 17.1722 3.82899 18.0002 5.00099 18.0002C6.17299 18.0002 7.00099 17.1722 7.00099 16.0002C7.00099 14.8282 6.17099 14.0002 5.00099 14.0002ZM20.001 14.0002C18.829 14.0002 18.001 14.8282 18.001 16.0002C18.001 17.1722 18.829 18.0002 20.001 18.0002C21.173 18.0002 22.001 17.1722 22.001 16.0002C22.001 14.8282 21.172 14.0002 20.001 14.0002ZM8.99999 16.0002C8.99999 14.8282 9.82799 14.0002 11 14.0002C12.172 14.0002 13 14.8282 13 16.0002C13 17.1722 12.172 18.0002 11 18.0002C9.82899 18.0002 8.99999 17.1722 8.99999 16.0002ZM2.55299 6.00017C2.20648 5.71924 1.96383 5.33053 1.86363 4.89584C1.76342 4.46115 1.81142 4.00544 1.99999 3.60117L3.11399 1.21117C3.30253 0.806976 3.62077 0.477401 4.01812 0.27483C4.41547 0.07226 4.86913 0.00831934 5.30699 0.0931708L9.36199 0.87917C9.5222 0.910057 9.67802 0.960431 9.82599 1.02917L13.519 2.75117C13.6904 2.83113 13.8443 2.94407 13.9721 3.08354C14.0998 3.22301 14.1988 3.38627 14.2634 3.56401C14.3281 3.74174 14.3571 3.93047 14.3487 4.11941C14.3404 4.30835 14.295 4.4938 14.215 4.66517L11.723 10.2052C11.643 10.3766 11.5301 10.5305 11.3906 10.6582C11.2511 10.786 11.0879 10.885 10.9102 10.9496C10.7324 11.0142 10.5437 11.0432 10.3548 11.0349C10.1658 11.0266 9.98036 10.9812 9.80899 10.9012L6.11699 9.17917C5.96858 9.11015 5.8292 9.02317 5.70199 8.92017L2.55299 6.00017Z" fill="#036FC7"/>
<path d="M1.49999 12C0.944994 12 0.999994 12.445 0.999994 13V14.5C0.999994 15.055 0.944994 15.462 1.49999 15.462H1.99999V13H14V15.462L14.215 15.423C14.77 15.423 15 15.055 15 14.5V13C15 12.445 14.555 12 14 12H1.49999Z" fill="#036FC7"/>
</svg>